PathFileType	4	(X/Y/Z)	/Users/niels/Desktop/University/Third Semester/Perception and Action/Exam/Gymnastics Motion Tracking/Code for Gym Tracking/Analyzed Data/Webcam_Backflip/id7_2_baseline_Sports2D/id7_2_baseline_Sports2D_px_person00.trc
DataRate	CameraRate	NumFrames	NumMarkers	Units	OrigDataRate	OrigDataStartFrame	OrigNumFrames
29.808917197452228	29.808917197452228	8	22	m	29.808917197452228	137	157
Frame#	Time	Hip			RHip			RKnee			RAnkle			RBigToe			RSmallToe			RHeel			LHip			LKnee			LAnkle			LBigToe			LSmallToe			LHeel			Neck			Head			Nose			RShoulder			RElbow			RWrist			LShoulder			LElbow			LWrist		
		X1	Y1	Z1	X2	Y2	Z2	X3	Y3	Z3	X4	Y4	Z4	X5	Y5	Z5	X6	Y6	Z6	X7	Y7	Z7	X8	Y8	Z8	X9	Y9	Z9	X10	Y10	Z10	X11	Y11	Z11	X12	Y12	Z12	X13	Y13	Z13	X14	Y14	Z14	X15	Y15	Z15	X16	Y16	Z16	X17	Y17	Z17	X18	Y18	Z18	X19	Y19	Z19	X20	Y20	Z20	X21	Y21	Z21	X22	Y22	Z22
137	4.595940170940171	0.9445002929326246	-0.5207031111989285	0.0	0.9231395391729819	-0.52146931478173	0.0	0.9339014728247772	-0.6278426568112149	0.0	0.926699340403523	-0.7378580953361766	0.0	0.9546511835674141	-0.7638152023885828	0.0	0.9436521501850913	-0.7647509901403908	0.0	0.9201086300443939	-0.7549074395903598	0.0	0.9660807552016715	-0.5196333112322301	0.0	0.9620760594177168	-0.6291408974572374	0.0	0.9426293003304307	-0.7295556788405821	0.0	0.9647161778706664	-0.7612676113698229	0.0	0.9701717571465751	-0.7563348372543933	0.0	0.9382316871633507	-0.7453319479049255	0.0	0.93903982674747	-0.37570083523441616	0.0	0.9256298943264955	-0.307034186267899	0.0	0.9205371635787022	-0.34938655675632624	0.0	0.9018953458117344	-0.39485882108191134	0.0	0.8875822936088095	-0.46308858675727893	0.0	0.866571461650424	-0.5233259932236444	0.0	0.9815143387493632	-0.3875569178842214	0.0	1.0008211990265632	-0.45263919966611244	0.0	1.0379764928839634	-0.4874050876028521	0.0
138	4.629487179487179	0.9456293338274305	-0.5164733091382393	0.0	0.9235054937749413	-0.5173505410040273	0.0	0.9346533101515423	-0.6248720501869984	0.0	0.9276613307622358	-0.7354894725968342	0.0	0.9540839610356665	-0.7621165178159904	0.0	0.9422633067841966	-0.7630792502896554	0.0	0.9212547291646672	-0.7521062033800254	0.0	0.96767472442341	-0.5155643490021705	0.0	0.9645590722293449	-0.6260444778986767	0.0	0.9462198880703792	-0.7263592415924965	0.0	0.9647459610575959	-0.759604207984751	0.0	0.9714621302173012	-0.7546768701853279	0.0	0.9416185457346797	-0.7415642700230383	0.0	0.9392974729467005	-0.372210626182456	0.0	0.9249656355408479	-0.3035960924439221	0.0	0.9192436246622332	-0.3461253422052311	0.0	0.9016365354279149	-0.39173516240645967	0.0	0.8877559224852247	-0.4597079746877158	0.0	0.8642561453005644	-0.519482060014839	0.0	0.9825366605339347	-0.3836772431704477	0.0	1.0020043951745197	-0.4477578442010798	0.0	1.0368105795021534	-0.4815226394543783	0.0
139	4.663034188034188	0.9466848338756586	-0.5162384832611272	0.0	0.923965169439795	-0.5171801295243356	0.0	0.9351897597866657	-0.6257676488244641	0.0	0.9284161659772958	-0.7367152314529568	0.0	0.9537394410155092	-0.7636545161721877	0.0	0.9410050690228139	-0.7645789164066199	0.0	0.922459376197264	-0.7527497404400594	0.0	0.9691433581761851	-0.515415733422635	0.0	0.966956604283465	-0.6267952403287083	0.0	0.9501153296164425	-0.7263317276582641	0.0	0.9654335959992283	-0.7604600976645838	0.0	0.9732441560017207	-0.7555142421696753	0.0	0.9451115823847658	-0.7408410399074375	0.0	0.9394075040944156	-0.3723441595313929	0.0	0.924541075060432	-0.30373440622401904	0.0	0.9179088229173249	-0.34644020878291	0.0	0.9014364304970214	-0.3922704080030352	0.0	0.8885705171881176	-0.4602406817035397	0.0	0.8634827195892042	-0.5200967596323485	0.0	0.983068557979435	-0.38339601263345774	0.0	1.0023213509794342	-0.44656934983980145	0.0	1.033429656069089	-0.4805184236392432	0.0
140	4.696581196581197	0.9475571742359313	-0.5200148408240114	0.0	0.9244654772100541	-0.5209923433893286	0.0	0.9356272346933674	-0.6303923841979922	0.0	0.9290556616763277	-0.7414418396333504	0.0	0.9537066103847597	-0.7683457275459881	0.0	0.9401180792308075	-0.7690777869765727	0.0	0.923702312110915	-0.7568837959293351	0.0	0.9703650593133649	-0.5192047052928533	0.0	0.9693483695938078	-0.6312676856825236	0.0	0.9540284977125092	-0.7294228820283085	0.0	0.9668289226739784	-0.7637615288749036	0.0	0.9754303320016413	-0.758821739460675	0.0	0.9484485722355913	-0.7432993067860646	0.0	0.9393841501720864	-0.376109067404003	0.0	0.9243109658940527	-0.3074454412752732	0.0	0.9166361005749767	-0.35031600059332235	0.0	0.9012488163318249	-0.3964020053778851	0.0	0.8898506647905247	-0.46458931617642235	0.0	0.8643967072415825	-0.5250455624594431	0.0	0.9830943610025006	-0.3867146639464457	0.0	1.0022705671470802	-0.449226743838371	0.0	1.028388975700147	-0.48416791053384867	0.0
141	4.730128205128205	0.9482198414091095	-0.5275655790139593	0.0	0.9249971708505783	-0.5285902646347299	0.0	0.9361465368243991	-0.6384042508217757	0.0	0.9296854646635825	-0.749298423068652	0.0	0.9539306785509787	-0.775809152595946	0.0	0.9396990897456297	-0.7761926232996081	0.0	0.9249360362887583	-0.7642462653499825	0.0	0.9713051314635271	-0.5267629245272005	0.0	0.971726286103138	-0.6391360873934473	0.0	0.9576046252623492	-0.7355865075368256	0.0	0.9687792652751829	-0.7694935588728238	0.0	0.9778121093117073	-0.7646270057923542	0.0	0.9514056660339344	-0.7490257069357356	0.0	0.9392727303397818	-0.38331703396779837	0.0	0.9242596869426907	-0.31457280462327486	0.0	0.9155603804129058	-0.3575340445128695	0.0	0.901104867116385	-0.40393189898652343	0.0	0.8913690593959722	-0.4724078025494377	0.0	0.8670618088443979	-0.5337305275563068	0.0	0.982694827664147	-0.39351397102241803	0.0	1.0023411525230668	-0.4557683061699647	0.0	1.0224041691397192	-0.4921044561528531	0.0
142	4.763675213675214	0.9487428271781734	-0.5383713970012003	0.0	0.925569352163947	-0.539489642675409	0.0	0.936861586074975	-0.6492137173157986	0.0	0.9303315664529129	-0.7596558157001931	0.0	0.9541535965591937	-0.785394647934075	0.0	0.939592369143869	-0.7853410952589083	0.0	0.9260842179754311	-0.7741971873025358	0.0	0.9720375649311152	-0.5376648830379196	0.0	0.9739590933192804	-0.649840573333951	0.0	0.9605510922327373	-0.74465390800967	0.0	0.9709647065362578	-0.7775195877206961	0.0	0.9801127781982206	-0.7727911515356467	0.0	0.9538651181793252	-0.7578794869177439	0.0	0.9391288190926868	-0.39355647125777465	0.0	0.9244041831828094	-0.3247302959588028	0.0	0.9147179014659276	-0.3676257167732952	0.0	0.9010855431602518	-0.41445385163444914	0.0	0.8929018490176671	-0.4830599406075979	0.0	0.8713670464712184	-0.5451121790215651	0.0	0.9820687482001295	-0.4034822478264667	0.0	1.002828248124725	-0.46593503776830464	0.0	1.016271040413631	-0.5037700627935812	0.0
143	4.797222222222222	0.9492227950035076	-0.5515821610759755	0.0	0.9261875322423022	-0.5528760911005783	0.0	0.9377215484275228	-0.6620162647428229	0.0	0.9309327635784723	-0.7716773647309024	0.0	0.9539832614362991	-0.7962345007985907	0.0	0.9393964815420833	-0.7957311457543087	0.0	0.9270720993178437	-0.7857719263213884	0.0	0.9726567965150663	-0.5511364451213149	0.0	0.9758390510650722	-0.6625746762710479	0.0	0.9627414623345896	-0.7561555520902813	0.0	0.9730537651341578	-0.78740538574621	0.0	0.9820959224661844	-0.7828542875537174	0.0	0.9558285523567834	-0.7692860611720383	0.0	0.9390029693879378	-0.40616149308094307	0.0	0.9247900571453874	-0.33725713473566166	0.0	0.9140709890674233	-0.37984758560243437	0.0	0.9012469516410094	-0.42729638357775734	0.0	0.894208409705556	-0.49562512390109037	0.0	0.8769816067562436	-0.5578434696232512	0.0	0.9814838985944573	-0.41604543803709143	0.0	1.0037572293299128	-0.4790332273266194	0.0	1.0108018969912984	-0.518272916060709	0.0
144	4.8307692307692305	0.9497138423173781	-0.5660594916237288	0.0	0.9268427309831836	-0.567627184126956	0.0	0.9385668688069255	-0.675843830509401	0.0	0.9313842429547728	-0.784365281813514	0.0	0.9531143523012803	-0.807316707655908	0.0	0.9386760644956103	-0.8063874889785987	0.0	0.9278382209910959	-0.7978118893659842	0.0	0.9732130846218353	-0.5660407975415981	0.0	0.9771619230661555	-0.6763378241959076	0.0	0.9641948675640158	-0.7692612330305217	0.0	0.9747900503227319	-0.7984214765455816	0.0	0.9836136204973557	-0.7940712454159663	0.0	0.9573442449142963	-0.7822253822620077	0.0	0.9389541435367796	-0.42021391584292594	0.0	0.9254530679368627	-0.3512253953005598	0.0	0.9136127979334764	-0.3932279765804375	0.0	0.9015853088182125	-0.44150229486100573	0.0	0.8950079103753811	-0.5089030785438167	0.0	0.883373569066344	-0.5703998691308994	0.0	0.9811759250607085	-0.4303139292454136	0.0	1.0049512215144278	-0.4938370470800179	0.0	1.0067425232573577	-0.5343015185348293	0.0
